<?xml version="1.0" encoding="utf-8"?>
<svg version="1.0" xmlns:svg="http://www.w3.org/2000/svg"
	 xmlns="http://www.w3.org/2000/svg" xmlns:xlink="http://www.w3.org/1999/xlink" x="0px" y="0px" viewBox="0 0 132 132"
	 enable-background="new 0 0 132 132" xml:space="preserve">
<g>
	
		<linearGradient id="a" gradientUnits="userSpaceOnUse" x1="-948.2054" y1="638.241" x2="-948.108" y2="638.241" gradientTransform="matrix(120 0 0 -120 113887 76656)">
		<stop  offset="0" style="stop-color:#16529C"/>
		<stop  offset="1" style="stop-color:#236AC0"/>
	</linearGradient>
	<path id="svg_10" fill="url(#a)" d="M66,2.2c35.9,0,64.9,29.1,64.9,64.9
		S101.9,132,66,132S1.1,102.9,1.1,67.1S30.1,2.2,66,2.2z"/>
	
		<linearGradient id="b" gradientUnits="userSpaceOnUse" x1="-940.1249" y1="638.241" x2="-940.9147" y2="638.241" gradientTransform="matrix(60 0 0 -120 56467 76656)">
		<stop  offset="0" style="stop-color:#2166BB"/>
		<stop  offset="1" style="stop-color:#89EDA9"/>
	</linearGradient>
	<path id="svg_11" fill="url(#b)" d="M66,2.2C30.1,2.2,1.1,31.2,1.1,67.1
		S30.1,132,66,132V2.2z"/>
	<path id="svg_12" fill="#40A1C8" d="M130.9,64.9c0,35.9-29.1,64.9-64.9,64.9S1.1,100.8,1.1,64.9S30.1,0,66,0S130.9,29.1,130.9,64.9
		z"/>
	<path id="svg_13" fill="#49BBB0" d="M27,66c-0.1,14.2,2.8,28.4,8.4,41.4c-3.9,2-7.5,4.6-10.6,7.7C10.1,103,1.4,85.1,1.1,66H27z"/>
	<path id="svg_14" fill="#378BDE" d="M66,100.6v29.2c-4.9,0-9.7-0.5-14.5-1.6c-7.1-5.4-12.6-12.6-16-20.9
		C45,102.8,55.4,100.5,66,100.6z"/>
	<path id="svg_15" fill="#266EC6" d="M105,66c0.1,14.2-2.8,28.4-8.4,41.4c3.9,2,7.5,4.6,10.6,7.7c14.8-12.1,23.5-30,23.8-49.1H105z"
		/>
	<path id="svg_16" fill="#378BDE" d="M66,66v63.8c4.9,0,9.7-0.5,14.5-1.6C95,117.9,104.7,93.5,105,66H66z"/>
	<path id="svg_17" fill="#266EC6" d="M66,100.6v29.2c4.9,0,9.7-0.5,14.5-1.6c6.3-4.3,11.8-11.6,16-20.9
		C87,102.8,76.6,100.5,66,100.6z"/>
	<path id="svg_18" fill="#1E62B5" d="M96.5,107.4c-4.3,9.2-9.7,16.3-16,20.8c9.8-2.2,18.9-6.7,26.6-13
		C104.1,112,100.5,109.4,96.5,107.4z"/>
	<path id="svg_19" fill="#53D795" d="M66,0C30.1,0,1.1,29.1,1.1,64.9c0,0.4,0,0.7,0,1.1H66V0z"/>
	<path id="svg_20" fill="#72E99A" d="M51.5,1.6c-9.8,2.2-18.9,6.7-26.6,13c3.1,3.2,6.6,5.8,10.6,7.8C39.8,13.2,45.2,6.1,51.5,1.6z"
		/>
	<path id="svg_21" fill="#49BBB0" d="M66,0c-4.9,0-9.7,0.5-14.5,1.6C36.8,12,27,37,27,64.9V66h39V0z"/>
	<path id="svg_22" fill="#53D795" d="M66,0c-4.9,0-9.7,0.5-14.5,1.6c-7.1,5.4-12.6,12.6-16,20.9c9.5,4.6,20,6.9,30.5,6.7V0z"/>
	<path id="svg_23" fill="#378BDE" d="M66,0c35.9,0,64.9,29.1,64.9,64.9c0,0.4,0,0.7,0,1.1H66V0z"/>
	<g id="svg_24">
		<path id="svg_25" fill="#40A1C8" d="M80.5,1.6c9.8,2.2,18.9,6.7,26.6,13c-3.1,3.2-6.6,5.8-10.6,7.8C92.2,13.2,86.8,6.1,80.5,1.6z"
			/>
		<path id="svg_26" fill="#40A1C8" d="M66,0c4.9,0,9.7,0.5,14.5,1.6C95.2,12,105,37,105,64.9V66H66V0z"/>
	</g>
	<path id="svg_27" fill="#49BBB0" d="M66,0c4.9,0,9.7,0.5,14.5,1.6c6.3,4.3,11.8,11.6,16,20.8C87.9,26.7,77,29.2,66,29.2V0z"/>
</g>
</svg>
